<svg xmlns="http://www.w3.org/2000/svg" viewBox="0 0 32 32" shape-rendering="crispEdges" image-rendering="pixelated">
  <!-- 8-bit Penguin Walk Frame 1 - Left foot forward -->
  
  <!-- Headphones band -->
  <rect x="6" y="3" width="2" height="3" fill="#475569"/>
  <rect x="24" y="3" width="2" height="3" fill="#475569"/>
  <rect x="8" y="2" width="16" height="2" fill="#475569"/>
  
  <!-- Headphones ears -->
  <rect x="6" y="6" width="2" height="4" fill="#64748b"/>
  <rect x="24" y="6" width="2" height="4" fill="#64748b"/>
  
  <!-- Head -->
  <rect x="8" y="4" width="16" height="2" fill="#1e293b"/>
  <rect x="7" y="6" width="18" height="2" fill="#1e293b"/>
  
  <!-- Eyes looking forward -->
  <rect x="8" y="8" width="4" height="3" fill="#ffffff"/>
  <rect x="20" y="8" width="4" height="3" fill="#ffffff"/>
  <rect x="10" y="9" width="2" height="2" fill="#1e293b"/>
  <rect x="22" y="9" width="2" height="2" fill="#1e293b"/>
  
  <!-- Beak -->
  <rect x="14" y="11" width="4" height="2" fill="#f59e0b"/>
  
  <!-- Body sides -->
  <rect x="6" y="10" width="2" height="8" fill="#1e293b"/>
  <rect x="24" y="10" width="2" height="8" fill="#1e293b"/>
  
  <!-- Belly -->
  <rect x="10" y="13" width="12" height="7" fill="#f1f5f9"/>
  <rect x="8" y="14" width="16" height="5" fill="#f1f5f9"/>
  
  <!-- Wings swinging - left wing back -->
  <rect x="3" y="11" width="3" height="5" fill="#3b82f6"/>
  <rect x="26" y="13" width="3" height="4" fill="#3b82f6"/>
  
  <!-- Body bottom -->
  <rect x="7" y="18" width="18" height="4" fill="#1e293b"/>
  
  <!-- Feet - left foot forward -->
  <rect x="6" y="22" width="6" height="3" fill="#f59e0b"/>
  <rect x="20" y="23" width="5" height="2" fill="#f59e0b"/>
  <rect x="5" y="24" width="8" height="2" fill="#f59e0b"/>
</svg>
