<svg xmlns="http://www.w3.org/2000/svg" viewBox="0 0 48 32" shape-rendering="crispEdges">
  <!-- 8-bit Penguin in Bed - Night (NO speech bubble) -->
  
  <!-- Zzz sleep indicators -->
  <rect x="30" y="6" width="1" height="1" fill="#a78bfa"/>
  <rect x="31" y="5" width="1" height="1" fill="#a78bfa"/>
  <rect x="32" y="5" width="1" height="1" fill="#a78bfa"/>
  <rect x="33" y="4" width="1" height="1" fill="#a78bfa"/>
  <rect x="34" y="4" width="1" height="1" fill="#a78bfa"/>
  
  <rect x="36" y="8" width="1" height="1" fill="#c4b5fd"/>
  <rect x="37" y="7" width="1" height="1" fill="#c4b5fd"/>
  <rect x="38" y="7" width="1" height="1" fill="#c4b5fd"/>
  <rect x="39" y="6" width="1" height="1" fill="#c4b5fd"/>
  
  <rect x="42" y="10" width="1" height="1" fill="#ddd6fe"/>
  <rect x="43" y="9" width="1" height="1" fill="#ddd6fe"/>
  <rect x="44" y="9" width="1" height="1" fill="#ddd6fe"/>
  
  <!-- Bed frame -->
  <rect x="6" y="20" width="1" height="1" fill="#78350f"/>
  <rect x="7" y="20" width="1" height="1" fill="#78350f"/>
  <rect x="8" y="20" width="1" height="1" fill="#78350f"/>
  <rect x="9" y="20" width="1" height="1" fill="#78350f"/>
  <rect x="10" y="20" width="1" height="1" fill="#78350f"/>
  <rect x="11" y="20" width="1" height="1" fill="#78350f"/>
  <rect x="12" y="20" width="1" height="1" fill="#78350f"/>
  <rect x="13" y="20" width="1" height="1" fill="#78350f"/>
  <rect x="14" y="20" width="1" height="1" fill="#78350f"/>
  <rect x="15" y="20" width="1" height="1" fill="#78350f"/>
  <rect x="16" y="20" width="1" height="1" fill="#78350f"/>
  <rect x="17" y="20" width="1" height="1" fill="#78350f"/>
  <rect x="18" y="20" width="1" height="1" fill="#78350f"/>
  <rect x="19" y="20" width="1" height="1" fill="#78350f"/>
  <rect x="20" y="20" width="1" height="1" fill="#78350f"/>
  <rect x="21" y="20" width="1" height="1" fill="#78350f"/>
  <rect x="22" y="20" width="1" height="1" fill="#78350f"/>
  <rect x="23" y="20" width="1" height="1" fill="#78350f"/>
  <rect x="24" y="20" width="1" height="1" fill="#78350f"/>
  
  <rect x="6" y="21" width="1" height="1" fill="#92400e"/>
  <rect x="7" y="21" width="1" height="1" fill="#92400e"/>
  <rect x="8" y="21" width="1" height="1" fill="#92400e"/>
  <rect x="9" y="21" width="1" height="1" fill="#92400e"/>
  <rect x="10" y="21" width="1" height="1" fill="#92400e"/>
  <rect x="11" y="21" width="1" height="1" fill="#92400e"/>
  <rect x="12" y="21" width="1" height="1" fill="#92400e"/>
  <rect x="13" y="21" width="1" height="1" fill="#92400e"/>
  <rect x="14" y="21" width="1" height="1" fill="#92400e"/>
  <rect x="15" y="21" width="1" height="1" fill="#92400e"/>
  <rect x="16" y="21" width="1" height="1" fill="#92400e"/>
  <rect x="17" y="21" width="1" height="1" fill="#92400e"/>
  <rect x="18" y="21" width="1" height="1" fill="#92400e"/>
  <rect x="19" y="21" width="1" height="1" fill="#92400e"/>
  <rect x="20" y="21" width="1" height="1" fill="#92400e"/>
  <rect x="21" y="21" width="1" height="1" fill="#92400e"/>
  <rect x="22" y="21" width="1" height="1" fill="#92400e"/>
  <rect x="23" y="21" width="1" height="1" fill="#92400e"/>
  <rect x="24" y="21" width="1" height="1" fill="#92400e"/>
  
  <rect x="6" y="22" width="1" height="1" fill="#78350f"/>
  <rect x="7" y="22" width="1" height="1" fill="#78350f"/>
  <rect x="8" y="22" width="1" height="1" fill="#78350f"/>
  <rect x="9" y="22" width="1" height="1" fill="#78350f"/>
  <rect x="10" y="22" width="1" height="1" fill="#78350f"/>
  <rect x="11" y="22" width="1" height="1" fill="#78350f"/>
  <rect x="12" y="22" width="1" height="1" fill="#78350f"/>
  <rect x="13" y="22" width="1" height="1" fill="#78350f"/>
  <rect x="14" y="22" width="1" height="1" fill="#78350f"/>
  <rect x="15" y="22" width="1" height="1" fill="#78350f"/>
  <rect x="16" y="22" width="1" height="1" fill="#78350f"/>
  <rect x="17" y="22" width="1" height="1" fill="#78350f"/>
  <rect x="18" y="22" width="1" height="1" fill="#78350f"/>
  <rect x="19" y="22" width="1" height="1" fill="#78350f"/>
  <rect x="20" y="22" width="1" height="1" fill="#78350f"/>
  <rect x="21" y="22" width="1" height="1" fill="#78350f"/>
  <rect x="22" y="22" width="1" height="1" fill="#78350f"/>
  <rect x="23" y="22" width="1" height="1" fill="#78350f"/>
  <rect x="24" y="22" width="1" height="1" fill="#78350f"/>
  
  <!-- Bed legs -->
  <rect x="7" y="23" width="1" height="1" fill="#78350f"/>
  <rect x="7" y="24" width="1" height="1" fill="#78350f"/>
  <rect x="22" y="23" width="1" height="1" fill="#78350f"/>
  <rect x="22" y="24" width="1" height="1" fill="#78350f"/>
  
  <!-- Blanket -->
  <rect x="8" y="18" width="1" height="1" fill="#4f46e5"/>
  <rect x="9" y="18" width="1" height="1" fill="#4f46e5"/>
  <rect x="10" y="18" width="1" height="1" fill="#4f46e5"/>
  <rect x="11" y="18" width="1" height="1" fill="#4f46e5"/>
  <rect x="12" y="18" width="1" height="1" fill="#4f46e5"/>
  <rect x="13" y="18" width="1" height="1" fill="#4f46e5"/>
  <rect x="14" y="18" width="1" height="1" fill="#4f46e5"/>
  <rect x="15" y="18" width="1" height="1" fill="#4f46e5"/>
  <rect x="16" y="18" width="1" height="1" fill="#4f46e5"/>
  <rect x="17" y="18" width="1" height="1" fill="#4f46e5"/>
  <rect x="18" y="18" width="1" height="1" fill="#4f46e5"/>
  <rect x="19" y="18" width="1" height="1" fill="#4f46e5"/>
  <rect x="20" y="18" width="1" height="1" fill="#4f46e5"/>
  <rect x="21" y="18" width="1" height="1" fill="#4f46e5"/>
  <rect x="22" y="18" width="1" height="1" fill="#4f46e5"/>
  
  <rect x="7" y="19" width="1" height="1" fill="#6366f1"/>
  <rect x="8" y="19" width="1" height="1" fill="#6366f1"/>
  <rect x="9" y="19" width="1" height="1" fill="#6366f1"/>
  <rect x="10" y="19" width="1" height="1" fill="#6366f1"/>
  <rect x="11" y="19" width="1" height="1" fill="#6366f1"/>
  <rect x="12" y="19" width="1" height="1" fill="#6366f1"/>
  <rect x="13" y="19" width="1" height="1" fill="#6366f1"/>
  <rect x="14" y="19" width="1" height="1" fill="#6366f1"/>
  <rect x="15" y="19" width="1" height="1" fill="#6366f1"/>
  <rect x="16" y="19" width="1" height="1" fill="#6366f1"/>
  <rect x="17" y="19" width="1" height="1" fill="#6366f1"/>
  <rect x="18" y="19" width="1" height="1" fill="#6366f1"/>
  <rect x="19" y="19" width="1" height="1" fill="#6366f1"/>
  <rect x="20" y="19" width="1" height="1" fill="#6366f1"/>
  <rect x="21" y="19" width="1" height="1" fill="#6366f1"/>
  <rect x="22" y="19" width="1" height="1" fill="#6366f1"/>
  <rect x="23" y="19" width="1" height="1" fill="#4f46e5"/>
  
  <rect x="6" y="20" width="1" height="1" fill="#6366f1"/>
  <rect x="7" y="20" width="1" height="1" fill="#6366f1"/>
  <rect x="8" y="20" width="1" height="1" fill="#6366f1"/>
  <rect x="9" y="20" width="1" height="1" fill="#6366f1"/>
  <rect x="10" y="20" width="1" height="1" fill="#6366f1"/>
  <rect x="11" y="20" width="1" height="1" fill="#6366f1"/>
  <rect x="12" y="20" width="1" height="1" fill="#6366f1"/>
  <rect x="13" y="20" width="1" height="1" fill="#6366f1"/>
  <rect x="14" y="20" width="1" height="1" fill="#6366f1"/>
  <rect x="15" y="20" width="1" height="1" fill="#6366f1"/>
  <rect x="16" y="20" width="1" height="1" fill="#6366f1"/>
  <rect x="17" y="20" width="1" height="1" fill="#6366f1"/>
  <rect x="18" y="20" width="1" height="1" fill="#6366f1"/>
  <rect x="19" y="20" width="1" height="1" fill="#6366f1"/>
  <rect x="20" y="20" width="1" height="1" fill="#6366f1"/>
  <rect x="21" y="20" width="1" height="1" fill="#6366f1"/>
  <rect x="22" y="20" width="1" height="1" fill="#6366f1"/>
  <rect x="23" y="20" width="1" height="1" fill="#4f46e5"/>
  
  <!-- Pillow -->
  <rect x="10" y="16" width="1" height="1" fill="#f1f5f9"/>
  <rect x="11" y="16" width="1" height="1" fill="#f1f5f9"/>
  <rect x="12" y="16" width="1" height="1" fill="#f1f5f9"/>
  <rect x="13" y="16" width="1" height="1" fill="#f1f5f9"/>
  <rect x="14" y="16" width="1" height="1" fill="#f1f5f9"/>
  <rect x="15" y="16" width="1" height="1" fill="#f1f5f9"/>
  <rect x="10" y="17" width="1" height="1" fill="#e2e8f0"/>
  <rect x="11" y="17" width="1" height="1" fill="#e2e8f0"/>
  <rect x="12" y="17" width="1" height="1" fill="#e2e8f0"/>
  <rect x="13" y="17" width="1" height="1" fill="#e2e8f0"/>
  <rect x="14" y="17" width="1" height="1" fill="#e2e8f0"/>
  <rect x="15" y="17" width="1" height="1" fill="#e2e8f0"/>
  
  <!-- Penguin head sleeping -->
  <rect x="11" y="12" width="1" height="1" fill="#1e293b"/>
  <rect x="12" y="12" width="1" height="1" fill="#1e293b"/>
  <rect x="13" y="12" width="1" height="1" fill="#1e293b"/>
  <rect x="14" y="12" width="1" height="1" fill="#1e293b"/>
  <rect x="15" y="12" width="1" height="1" fill="#1e293b"/>
  <rect x="16" y="12" width="1" height="1" fill="#1e293b"/>
  <rect x="17" y="12" width="1" height="1" fill="#1e293b"/>
  <rect x="18" y="12" width="1" height="1" fill="#1e293b"/>
  
  <rect x="10" y="13" width="1" height="1" fill="#1e293b"/>
  <rect x="11" y="13" width="1" height="1" fill="#1e293b"/>
  <rect x="12" y="13" width="1" height="1" fill="#1e293b"/>
  <rect x="13" y="13" width="1" height="1" fill="#1e293b"/>
  <rect x="14" y="13" width="1" height="1" fill="#1e293b"/>
  <rect x="15" y="13" width="1" height="1" fill="#1e293b"/>
  <rect x="16" y="13" width="1" height="1" fill="#1e293b"/>
  <rect x="17" y="13" width="1" height="1" fill="#1e293b"/>
  <rect x="18" y="13" width="1" height="1" fill="#1e293b"/>
  <rect x="19" y="13" width="1" height="1" fill="#1e293b"/>
  
  <!-- Closed eyes (curves) -->
  <rect x="12" y="14" width="2" height="1" fill="#1e293b"/>
  <rect x="16" y="14" width="2" height="1" fill="#1e293b"/>
  
  <!-- Beak sleeping -->
  <rect x="14" y="15" width="1" height="1" fill="#f59e0b"/>
  <rect x="15" y="15" width="1" height="1" fill="#f59e0b"/>
  
  <!-- Body under blanket (just top visible) -->
  <rect x="11" y="15" width="1" height="1" fill="#1e293b"/>
  <rect x="12" y="15" width="1" height="1" fill="#1e293b"/>
  <rect x="18" y="15" width="1" height="1" fill="#1e293b"/>
  <rect x="19" y="15" width="1" height="1" fill="#1e293b"/>
</svg>
