<svg xmlns="http://www.w3.org/2000/svg" viewBox="0 0 48 32" shape-rendering="crispEdges">
  <!-- 8-bit Penguin with Headphones - Afternoon -->
  
  <!-- Music notes -->
  <rect x="34" y="4" width="1" height="1" fill="#a78bfa"/>
  <rect x="35" y="4" width="1" height="1" fill="#a78bfa"/>
  <rect x="35" y="5" width="1" height="1" fill="#a78bfa"/>
  <rect x="35" y="6" width="1" height="1" fill="#a78bfa"/>
  <rect x="35" y="7" width="1" height="1" fill="#a78bfa"/>
  <rect x="34" y="7" width="1" height="1" fill="#a78bfa"/>
  <rect x="33" y="7" width="1" height="1" fill="#a78bfa"/>
  <rect x="33" y="6" width="1" height="1" fill="#a78bfa"/>
  
  <rect x="40" y="6" width="1" height="1" fill="#c4b5fd"/>
  <rect x="41" y="6" width="1" height="1" fill="#c4b5fd"/>
  <rect x="41" y="7" width="1" height="1" fill="#c4b5fd"/>
  <rect x="41" y="8" width="1" height="1" fill="#c4b5fd"/>
  <rect x="41" y="9" width="1" height="1" fill="#c4b5fd"/>
  <rect x="40" y="9" width="1" height="1" fill="#c4b5fd"/>
  <rect x="39" y="9" width="1" height="1" fill="#c4b5fd"/>
  <rect x="39" y="8" width="1" height="1" fill="#c4b5fd"/>
  
  <!-- Headphones band - sits ON TOP of head -->
  <rect x="8" y="8" width="1" height="1" fill="#475569"/>
  <rect x="9" y="7" width="1" height="1" fill="#475569"/>
  <rect x="10" y="6" width="1" height="1" fill="#475569"/>
  <rect x="11" y="6" width="1" height="1" fill="#475569"/>
  <rect x="12" y="6" width="1" height="1" fill="#475569"/>
  <rect x="13" y="6" width="1" height="1" fill="#475569"/>
  <rect x="14" y="6" width="1" height="1" fill="#475569"/>
  <rect x="15" y="6" width="1" height="1" fill="#475569"/>
  <rect x="16" y="6" width="1" height="1" fill="#475569"/>
  <rect x="17" y="6" width="1" height="1" fill="#475569"/>
  <rect x="18" y="6" width="1" height="1" fill="#475569"/>
  <rect x="19" y="6" width="1" height="1" fill="#475569"/>
  <rect x="20" y="6" width="1" height="1" fill="#475569"/>
  <rect x="21" y="6" width="1" height="1" fill="#475569"/>
  <rect x="22" y="6" width="1" height="1" fill="#475569"/>
  <rect x="23" y="7" width="1" height="1" fill="#475569"/>
  <rect x="24" y="8" width="1" height="1" fill="#475569"/>
  
  <!-- Headphones left ear cup - covers side of head -->
  <rect x="7" y="9" width="1" height="1" fill="#334155"/>
  <rect x="7" y="10" width="1" height="1" fill="#334155"/>
  <rect x="7" y="11" width="1" height="1" fill="#334155"/>
  <rect x="7" y="12" width="1" height="1" fill="#334155"/>
  <rect x="8" y="9" width="1" height="1" fill="#1e293b"/>
  <rect x="8" y="10" width="1" height="1" fill="#1e293b"/>
  <rect x="8" y="11" width="1" height="1" fill="#1e293b"/>
  <rect x="8" y="12" width="1" height="1" fill="#1e293b"/>
  
  <!-- Headphones right ear cup - covers side of head -->
  <rect x="24" y="9" width="1" height="1" fill="#334155"/>
  <rect x="24" y="10" width="1" height="1" fill="#334155"/>
  <rect x="24" y="11" width="1" height="1" fill="#334155"/>
  <rect x="24" y="12" width="1" height="1" fill="#334155"/>
  <rect x="25" y="9" width="1" height="1" fill="#1e293b"/>
  <rect x="25" y="10" width="1" height="1" fill="#1e293b"/>
  <rect x="25" y="11" width="1" height="1" fill="#1e293b"/>
  <rect x="25" y="12" width="1" height="1" fill="#1e293b"/>
  
  <!-- Penguin head top -->
  <rect x="10" y="8" width="1" height="1" fill="#1e293b"/>
  <rect x="11" y="8" width="1" height="1" fill="#1e293b"/>
  <rect x="12" y="8" width="1" height="1" fill="#1e293b"/>
  <rect x="13" y="8" width="1" height="1" fill="#1e293b"/>
  <rect x="14" y="8" width="1" height="1" fill="#1e293b"/>
  <rect x="15" y="8" width="1" height="1" fill="#1e293b"/>
  <rect x="16" y="8" width="1" height="1" fill="#1e293b"/>
  <rect x="17" y="8" width="1" height="1" fill="#1e293b"/>
  <rect x="18" y="8" width="1" height="1" fill="#1e293b"/>
  <rect x="19" y="8" width="1" height="1" fill="#1e293b"/>
  <rect x="20" y="8" width="1" height="1" fill="#1e293b"/>
  <rect x="21" y="8" width="1" height="1" fill="#1e293b"/>
  <rect x="22" y="8" width="1" height="1" fill="#1e293b"/>
  
  <!-- Head sides -->
  <rect x="9" y="9" width="1" height="1" fill="#1e293b"/>
  <rect x="10" y="9" width="1" height="1" fill="#1e293b"/>
  <rect x="11" y="9" width="1" height="1" fill="#1e293b"/>
  <rect x="12" y="9" width="1" height="1" fill="#1e293b"/>
  <rect x="13" y="9" width="1" height="1" fill="#1e293b"/>
  <rect x="14" y="9" width="1" height="1" fill="#1e293b"/>
  <rect x="15" y="9" width="1" height="1" fill="#1e293b"/>
  <rect x="16" y="9" width="1" height="1" fill="#1e293b"/>
  <rect x="17" y="9" width="1" height="1" fill="#1e293b"/>
  <rect x="18" y="9" width="1" height="1" fill="#1e293b"/>
  <rect x="19" y="9" width="1" height="1" fill="#1e293b"/>
  <rect x="20" y="9" width="1" height="1" fill="#1e293b"/>
  <rect x="21" y="9" width="1" height="1" fill="#1e293b"/>
  <rect x="22" y="9" width="1" height="1" fill="#1e293b"/>
  <rect x="23" y="9" width="1" height="1" fill="#1e293b"/>
  
  <rect x="9" y="10" width="1" height="1" fill="#1e293b"/>
  <rect x="10" y="10" width="1" height="1" fill="#1e293b"/>
  <rect x="11" y="10" width="1" height="1" fill="#1e293b"/>
  <rect x="12" y="10" width="1" height="1" fill="#1e293b"/>
  <rect x="13" y="10" width="1" height="1" fill="#1e293b"/>
  <rect x="14" y="10" width="1" height="1" fill="#1e293b"/>
  <rect x="15" y="10" width="1" height="1" fill="#1e293b"/>
  <rect x="16" y="10" width="1" height="1" fill="#1e293b"/>
  <rect x="17" y="10" width="1" height="1" fill="#1e293b"/>
  <rect x="18" y="10" width="1" height="1" fill="#1e293b"/>
  <rect x="19" y="10" width="1" height="1" fill="#1e293b"/>
  <rect x="20" y="10" width="1" height="1" fill="#1e293b"/>
  <rect x="21" y="10" width="1" height="1" fill="#1e293b"/>
  <rect x="22" y="10" width="1" height="1" fill="#1e293b"/>
  <rect x="23" y="10" width="1" height="1" fill="#1e293b"/>
  
  <!-- Eyes row - open eyes with whites -->
  <rect x="9" y="11" width="1" height="1" fill="#1e293b"/>
  <rect x="10" y="11" width="1" height="1" fill="#1e293b"/>
  <rect x="11" y="11" width="1" height="1" fill="#1e293b"/>
  <rect x="12" y="11" width="1" height="1" fill="#ffffff"/>
  <rect x="13" y="11" width="1" height="1" fill="#ffffff"/>
  <rect x="14" y="11" width="1" height="1" fill="#1e293b"/>
  <rect x="15" y="11" width="1" height="1" fill="#1e293b"/>
  <rect x="16" y="11" width="1" height="1" fill="#1e293b"/>
  <rect x="17" y="11" width="1" height="1" fill="#1e293b"/>
  <rect x="18" y="11" width="1" height="1" fill="#1e293b"/>
  <rect x="19" y="11" width="1" height="1" fill="#ffffff"/>
  <rect x="20" y="11" width="1" height="1" fill="#ffffff"/>
  <rect x="21" y="11" width="1" height="1" fill="#1e293b"/>
  <rect x="22" y="11" width="1" height="1" fill="#1e293b"/>
  <rect x="23" y="11" width="1" height="1" fill="#1e293b"/>
  
  <!-- Pupils row -->
  <rect x="9" y="12" width="1" height="1" fill="#1e293b"/>
  <rect x="10" y="12" width="1" height="1" fill="#1e293b"/>
  <rect x="11" y="12" width="1" height="1" fill="#1e293b"/>
  <rect x="12" y="12" width="1" height="1" fill="#ffffff"/>
  <rect x="13" y="12" width="1" height="1" fill="#1e293b"/>
  <rect x="14" y="12" width="1" height="1" fill="#1e293b"/>
  <rect x="15" y="12" width="1" height="1" fill="#f59e0b"/>
  <rect x="16" y="12" width="1" height="1" fill="#f59e0b"/>
  <rect x="17" y="12" width="1" height="1" fill="#f59e0b"/>
  <rect x="18" y="12" width="1" height="1" fill="#1e293b"/>
  <rect x="19" y="12" width="1" height="1" fill="#ffffff"/>
  <rect x="20" y="12" width="1" height="1" fill="#1e293b"/>
  <rect x="21" y="12" width="1" height="1" fill="#1e293b"/>
  <rect x="22" y="12" width="1" height="1" fill="#1e293b"/>
  <rect x="23" y="12" width="1" height="1" fill="#1e293b"/>
  
  <!-- Beak -->
  <rect x="15" y="13" width="1" height="1" fill="#f59e0b"/>
  <rect x="16" y="13" width="1" height="1" fill="#f59e0b"/>
  <rect x="17" y="13" width="1" height="1" fill="#f59e0b"/>
  
  <!-- Body top -->
  <rect x="9" y="13" width="1" height="1" fill="#1e293b"/>
  <rect x="10" y="13" width="1" height="1" fill="#1e293b"/>
  <rect x="11" y="13" width="1" height="1" fill="#1e293b"/>
  <rect x="12" y="13" width="1" height="1" fill="#1e293b"/>
  <rect x="13" y="13" width="1" height="1" fill="#1e293b"/>
  <rect x="14" y="13" width="1" height="1" fill="#1e293b"/>
  <rect x="18" y="13" width="1" height="1" fill="#1e293b"/>
  <rect x="19" y="13" width="1" height="1" fill="#1e293b"/>
  <rect x="20" y="13" width="1" height="1" fill="#1e293b"/>
  <rect x="21" y="13" width="1" height="1" fill="#1e293b"/>
  <rect x="22" y="13" width="1" height="1" fill="#1e293b"/>
  <rect x="23" y="13" width="1" height="1" fill="#1e293b"/>
  
  <!-- Belly start -->
  <rect x="9" y="14" width="1" height="1" fill="#1e293b"/>
  <rect x="10" y="14" width="1" height="1" fill="#1e293b"/>
  <rect x="11" y="14" width="1" height="1" fill="#1e293b"/>
  <rect x="12" y="14" width="1" height="1" fill="#f1f5f9"/>
  <rect x="13" y="14" width="1" height="1" fill="#f1f5f9"/>
  <rect x="14" y="14" width="1" height="1" fill="#f1f5f9"/>
  <rect x="15" y="14" width="1" height="1" fill="#f1f5f9"/>
  <rect x="16" y="14" width="1" height="1" fill="#f1f5f9"/>
  <rect x="17" y="14" width="1" height="1" fill="#f1f5f9"/>
  <rect x="18" y="14" width="1" height="1" fill="#f1f5f9"/>
  <rect x="19" y="14" width="1" height="1" fill="#f1f5f9"/>
  <rect x="20" y="14" width="1" height="1" fill="#f1f5f9"/>
  <rect x="21" y="14" width="1" height="1" fill="#1e293b"/>
  <rect x="22" y="14" width="1" height="1" fill="#1e293b"/>
  <rect x="23" y="14" width="1" height="1" fill="#1e293b"/>
  
  <!-- Wings -->
  <rect x="8" y="15" width="1" height="1" fill="#1e293b"/>
  <rect x="8" y="16" width="1" height="1" fill="#1e293b"/>
  <rect x="9" y="15" width="1" height="1" fill="#1e293b"/>
  <rect x="9" y="16" width="1" height="1" fill="#1e293b"/>
  <rect x="10" y="15" width="1" height="1" fill="#f1f5f9"/>
  <rect x="10" y="16" width="1" height="1" fill="#f1f5f9"/>
  <rect x="11" y="15" width="1" height="1" fill="#f1f5f9"/>
  <rect x="11" y="16" width="1" height="1" fill="#f1f5f9"/>
  <rect x="12" y="15" width="1" height="1" fill="#f1f5f9"/>
  <rect x="12" y="16" width="1" height="1" fill="#f1f5f9"/>
  <rect x="13" y="15" width="1" height="1" fill="#f1f5f9"/>
  <rect x="13" y="16" width="1" height="1" fill="#f1f5f9"/>
  <rect x="14" y="15" width="1" height="1" fill="#f1f5f9"/>
  <rect x="14" y="16" width="1" height="1" fill="#f1f5f9"/>
  <rect x="15" y="15" width="1" height="1" fill="#f1f5f9"/>
  <rect x="15" y="16" width="1" height="1" fill="#f1f5f9"/>
  <rect x="16" y="15" width="1" height="1" fill="#f1f5f9"/>
  <rect x="16" y="16" width="1" height="1" fill="#f1f5f9"/>
  <rect x="17" y="15" width="1" height="1" fill="#f1f5f9"/>
  <rect x="17" y="16" width="1" height="1" fill="#f1f5f9"/>
  <rect x="18" y="15" width="1" height="1" fill="#f1f5f9"/>
  <rect x="18" y="16" width="1" height="1" fill="#f1f5f9"/>
  <rect x="19" y="15" width="1" height="1" fill="#f1f5f9"/>
  <rect x="19" y="16" width="1" height="1" fill="#f1f5f9"/>
  <rect x="20" y="15" width="1" height="1" fill="#f1f5f9"/>
  <rect x="20" y="16" width="1" height="1" fill="#f1f5f9"/>
  <rect x="21" y="15" width="1" height="1" fill="#1e293b"/>
  <rect x="21" y="16" width="1" height="1" fill="#1e293b"/>
  <rect x="22" y="15" width="1" height="1" fill="#1e293b"/>
  <rect x="22" y="16" width="1" height="1" fill="#1e293b"/>
  <rect x="23" y="15" width="1" height="1" fill="#1e293b"/>
  <rect x="23" y="16" width="1" height="1" fill="#1e293b"/>
  <rect x="24" y="15" width="1" height="1" fill="#1e293b"/>
  <rect x="24" y="16" width="1" height="1" fill="#1e293b"/>
  
  <!-- More belly -->
  <rect x="8" y="17" width="1" height="1" fill="#1e293b"/>
  <rect x="9" y="17" width="1" height="1" fill="#1e293b"/>
  <rect x="10" y="17" width="1" height="1" fill="#f1f5f9"/>
  <rect x="11" y="17" width="1" height="1" fill="#f1f5f9"/>
  <rect x="12" y="17" width="1" height="1" fill="#f1f5f9"/>
  <rect x="13" y="17" width="1" height="1" fill="#f1f5f9"/>
  <rect x="14" y="17" width="1" height="1" fill="#f1f5f9"/>
  <rect x="15" y="17" width="1" height="1" fill="#f1f5f9"/>
  <rect x="16" y="17" width="1" height="1" fill="#f1f5f9"/>
  <rect x="17" y="17" width="1" height="1" fill="#f1f5f9"/>
  <rect x="18" y="17" width="1" height="1" fill="#f1f5f9"/>
  <rect x="19" y="17" width="1" height="1" fill="#f1f5f9"/>
  <rect x="20" y="17" width="1" height="1" fill="#f1f5f9"/>
  <rect x="21" y="17" width="1" height="1" fill="#f1f5f9"/>
  <rect x="22" y="17" width="1" height="1" fill="#1e293b"/>
  <rect x="23" y="17" width="1" height="1" fill="#1e293b"/>
  <rect x="24" y="17" width="1" height="1" fill="#1e293b"/>
  
  <rect x="8" y="18" width="1" height="1" fill="#1e293b"/>
  <rect x="9" y="18" width="1" height="1" fill="#1e293b"/>
  <rect x="10" y="18" width="1" height="1" fill="#f1f5f9"/>
  <rect x="11" y="18" width="1" height="1" fill="#f1f5f9"/>
  <rect x="12" y="18" width="1" height="1" fill="#f1f5f9"/>
  <rect x="13" y="18" width="1" height="1" fill="#f1f5f9"/>
  <rect x="14" y="18" width="1" height="1" fill="#f1f5f9"/>
  <rect x="15" y="18" width="1" height="1" fill="#f1f5f9"/>
  <rect x="16" y="18" width="1" height="1" fill="#f1f5f9"/>
  <rect x="17" y="18" width="1" height="1" fill="#f1f5f9"/>
  <rect x="18" y="18" width="1" height="1" fill="#f1f5f9"/>
  <rect x="19" y="18" width="1" height="1" fill="#f1f5f9"/>
  <rect x="20" y="18" width="1" height="1" fill="#f1f5f9"/>
  <rect x="21" y="18" width="1" height="1" fill="#f1f5f9"/>
  <rect x="22" y="18" width="1" height="1" fill="#1e293b"/>
  <rect x="23" y="18" width="1" height="1" fill="#1e293b"/>
  <rect x="24" y="18" width="1" height="1" fill="#1e293b"/>
  
  <rect x="9" y="19" width="1" height="1" fill="#1e293b"/>
  <rect x="10" y="19" width="1" height="1" fill="#f1f5f9"/>
  <rect x="11" y="19" width="1" height="1" fill="#f1f5f9"/>
  <rect x="12" y="19" width="1" height="1" fill="#f1f5f9"/>
  <rect x="13" y="19" width="1" height="1" fill="#f1f5f9"/>
  <rect x="14" y="19" width="1" height="1" fill="#f1f5f9"/>
  <rect x="15" y="19" width="1" height="1" fill="#f1f5f9"/>
  <rect x="16" y="19" width="1" height="1" fill="#f1f5f9"/>
  <rect x="17" y="19" width="1" height="1" fill="#f1f5f9"/>
  <rect x="18" y="19" width="1" height="1" fill="#f1f5f9"/>
  <rect x="19" y="19" width="1" height="1" fill="#f1f5f9"/>
  <rect x="20" y="19" width="1" height="1" fill="#f1f5f9"/>
  <rect x="21" y="19" width="1" height="1" fill="#f1f5f9"/>
  <rect x="22" y="19" width="1" height="1" fill="#1e293b"/>
  <rect x="23" y="19" width="1" height="1" fill="#1e293b"/>
  
  <rect x="10" y="20" width="1" height="1" fill="#1e293b"/>
  <rect x="11" y="20" width="1" height="1" fill="#f1f5f9"/>
  <rect x="12" y="20" width="1" height="1" fill="#f1f5f9"/>
  <rect x="13" y="20" width="1" height="1" fill="#f1f5f9"/>
  <rect x="14" y="20" width="1" height="1" fill="#f1f5f9"/>
  <rect x="15" y="20" width="1" height="1" fill="#f1f5f9"/>
  <rect x="16" y="20" width="1" height="1" fill="#f1f5f9"/>
  <rect x="17" y="20" width="1" height="1" fill="#f1f5f9"/>
  <rect x="18" y="20" width="1" height="1" fill="#f1f5f9"/>
  <rect x="19" y="20" width="1" height="1" fill="#f1f5f9"/>
  <rect x="20" y="20" width="1" height="1" fill="#f1f5f9"/>
  <rect x="21" y="20" width="1" height="1" fill="#f1f5f9"/>
  <rect x="22" y="20" width="1" height="1" fill="#1e293b"/>
  
  <!-- Feet -->
  <rect x="11" y="21" width="1" height="1" fill="#1e293b"/>
  <rect x="12" y="21" width="1" height="1" fill="#1e293b"/>
  <rect x="13" y="21" width="1" height="1" fill="#1e293b"/>
  <rect x="14" y="21" width="1" height="1" fill="#1e293b"/>
  <rect x="15" y="21" width="1" height="1" fill="#1e293b"/>
  <rect x="16" y="21" width="1" height="1" fill="#1e293b"/>
  <rect x="17" y="21" width="1" height="1" fill="#1e293b"/>
  <rect x="18" y="21" width="1" height="1" fill="#1e293b"/>
  <rect x="19" y="21" width="1" height="1" fill="#1e293b"/>
  <rect x="20" y="21" width="1" height="1" fill="#1e293b"/>
  <rect x="21" y="21" width="1" height="1" fill="#1e293b"/>
  
  <!-- Orange feet -->
  <rect x="10" y="22" width="2" height="1" fill="#f59e0b"/>
  <rect x="13" y="22" width="2" height="1" fill="#f59e0b"/>
  <rect x="16" y="22" width="1" height="1" fill="#f59e0b"/>
  <rect x="18" y="22" width="1" height="1" fill="#f59e0b"/>
  <rect x="21" y="22" width="2" height="1" fill="#f59e0b"/>
  
  <rect x="9" y="23" width="2" height="1" fill="#f59e0b"/>
  <rect x="12" y="23" width="3" height="1" fill="#f59e0b"/>
  <rect x="16" y="23" width="1" height="1" fill="#f59e0b"/>
  <rect x="18" y="23" width="1" height="1" fill="#f59e0b"/>
  <rect x="21" y="23" width="3" height="1" fill="#f59e0b"/>
  
  <rect x="9" y="24" width="2" height="1" fill="#f59e0b"/>
  <rect x="12" y="24" width="3" height="1" fill="#f59e0b"/>
  <rect x="21" y="24" width="3" height="1" fill="#f59e0b"/>
</svg>
